<?xml version="1.0" encoding="utf-8"?>

<!-- License Agreement at http://iconmonstr.com/license/ -->

<!DOCTYPE svg PUBLIC "-//W3C//DTD SVG 1.1//EN" "http://www.w3.org/Graphics/SVG/1.1/DTD/svg11.dtd">
<svg version="1.1" xmlns="http://www.w3.org/2000/svg" xmlns:xlink="http://www.w3.org/1999/xlink" x="0px" y="0px"
	 width="512px" height="512px" viewBox="0 0 512 512" enable-background="new 0 0 512 512" xml:space="preserve">
<path id="headphones-7-icon" d="M77.877,256C81.807,152.779,153.718,72.497,256,72.497S430.193,152.779,434.123,256h-30.432
	c-4.396-84.423-71.1-132.537-147.691-132.381C179.408,123.463,112.704,171.577,108.309,256H77.877z M462,318.001
	c0-19.33-15.67-35-35-35h-48.429v156.502H427c19.33,0,35-15.67,35-35V318.001z M50,318.001c0-19.33,15.67-35,35-35h48.429v156.502
	H85c-19.33,0-35-15.67-35-35V318.001z M232.382,417.814l16.119-98.211l16.46,70.688c1.635,7.245,11.694,8.062,14.424,1.09
	l14.915-38.117l13.924,32.443c2.311,5.377,9.599,6.212,13.06,1.48l12.667-17.224h24.621v-15.13h-28.534
	c-2.406,0-4.688,1.159-6.108,3.101l-7.031,9.619l-15.97-37.205c-2.665-6.21-11.528-6.077-13.996,0.228l-12.644,32.317
	l-19.482-86.301c-1.845-8.162-13.521-7.704-14.846,0.451l-16.161,99.694l-16.523-61.384c-1.844-7.332-12.191-7.747-14.536-0.48
	l-12.295,39.958h-27.016v15.132H186.4c2.73,0,5.692-2.211,6.467-4.829l6.12-20.68l18.592,73.987
	C219.587,426.426,231.067,425.896,232.382,417.814z"/>
</svg>
